<svg width="480" height="92mm" viewBox="0 0 127 92" xmlns="http://www.w3.org/2000/svg"><defs><path id="a" d="M391.641 670.202h234.433v169.619H391.641z"/></defs><g fill-rule="evenodd"><path d="M38.342 2.899l14.39 1.905V55.24l-14.39-10.635z" fill="#e9e9ff"/><path d="M21.04 4.014v46.815l17.302-6.224V2.9z" fill="#353564"/><path d="M21.04 50.829L33.446 64.58l19.286-9.34-14.39-10.636z" fill="#afafde"/><path d="M21.04 4.014l12.406 2.463 19.286-1.673-14.39-1.905z" fill="#4d4d9f"/><path d="M33.446 6.477v58.104l19.286-9.34V4.803z" fill="#d7d7ff"/><path d="M21.04 4.014l12.406 2.463v58.104L21.04 50.83z" fill="#8686bf"/></g><g fill-rule="evenodd"><path d="M14.336 20.236l12.481 7.375v39.83l-12.48-16.063z" fill="#e9e9ff"/><path d="M1.703 22.257V55.78l12.633-4.402V20.236z" fill="#353564"/><path d="M1.703 55.78l9.85 19.017 15.264-7.357-12.48-16.062z" fill="#afafde"/><path d="M1.703 22.257l9.85 8.732 15.264-3.378-12.48-7.375z" fill="#4d4d9f"/><path d="M11.554 30.989v43.808l15.263-7.357V27.61z" fill="#d7d7ff"/><path d="M1.703 22.257l9.85 8.732v43.808L1.704 55.78z" fill="#8686bf"/></g><g fill-rule="evenodd"><path d="M58.849 19.339l8.727 2.497V62.9l-8.727-6.155z" fill="#e9e9ff"/><path d="M38.919 23.554v43.581l19.93-10.39V19.34z" fill="#353564"/><path d="M38.919 67.135l8.027 8.492L67.576 62.9l-8.727-6.155z" fill="#afafde"/><path d="M38.919 23.554L46.946 27l20.63-5.164-8.727-2.497z" fill="#4d4d9f"/><path d="M46.946 27v48.627L67.576 62.9V21.836z" fill="#d7d7ff"/><path d="M38.919 23.554L46.946 27v48.627l-8.027-8.492z" fill="#8686bf"/></g><g fill-rule="evenodd"><path d="M32.29 34.426l14.507 6.446v35.437L32.29 64.916z" fill="#e9e9ff"/><path d="M11.19 40.223v34.94l21.1-10.247v-30.49z" fill="#353564"/><path d="M11.19 75.162l13.008 15.325 22.599-14.178L32.29 64.916z" fill="#afafde"/><path d="M11.19 40.223l13.008 8.67 22.599-8.021-14.507-6.446z" fill="#4d4d9f"/><path d="M24.198 48.892v41.595l22.599-14.178V40.872z" fill="#d7d7ff"/><path d="M11.19 40.223l13.008 8.67v41.594L11.189 75.162z" fill="#8686bf"/></g><text transform="translate(-30.406 -148.135) scale(.26458)" style="white-space:pre;shape-inside:url(#a);shape-padding:0" font-size="42.667" fill="#d7d7ff"><tspan x="391.641" y="709.129">Home </tspan><tspan x="391.641" y="762.463">Solutions</tspan></text></svg>